<?xml version="1.0" encoding="UTF-8" standalone="no"?>
<!DOCTYPE svg PUBLIC "-//W3C//DTD SVG 1.1//EN" "http://www.w3.org/Graphics/SVG/1.1/DTD/svg11.dtd">
<svg width="100%" height="100%" viewBox="0 0 28 28" version="1.1" xmlns="http://www.w3.org/2000/svg" xmlns:xlink="http://www.w3.org/1999/xlink" xml:space="preserve" xmlns:serif="http://www.serif.com/" style="fill-rule:evenodd;clip-rule:evenodd;stroke-linejoin:round;stroke-miterlimit:2;">
    <g transform="matrix(0.954083,0,0,0.948035,0.543553,0.632702)">
        <g transform="matrix(1,0,0,1,-722.001,-211.9)">
            <path d="M727.001,212C724.807,212 723.001,213.806 723.001,216L723.001,236C723.001,238.194 724.807,240 727.001,240L745.001,240C747.195,240 749.001,238.194 749.001,236L749.001,222.765L741.312,222.675C739.102,222.675 738.312,221.885 738.312,219.675L738.294,212L727.001,212ZM741.294,212L749.001,219.765L741.312,219.675L741.294,212Z" style="fill:rgb(60,69,79);"/>
        </g>
        <g transform="matrix(1,0,0,1.45472,-722.001,-316.542)">
            <rect x="727.001" y="232" width="12" height="2" style="fill:rgb(64,188,244);"/>
        </g>
        <g transform="matrix(1,0,0,1.45472,-722.001,-317.474)">
            <rect x="727.001" y="228" width="18" height="2" style="fill:rgb(0,224,84);"/>
        </g>
        <g transform="matrix(1.26702,0,0,1.45472,-916.128,-318.407)">
            <rect x="727.001" y="224" width="6" height="2" style="fill:rgb(255,128,0);"/>
        </g>
    </g>
</svg>
